<svg width="26" height="26" viewBox="0 0 26 26" fill="none" xmlns="http://www.w3.org/2000/svg">
<rect x="1.61659" y="1.4828" width="23.6668" height="23.6668" rx="11.8334" fill="white"/>
<rect x="1.61659" y="1.4828" width="23.6668" height="23.6668" rx="11.8334" stroke="#566476" stroke-width="1.43435"/>
<g clip-path="url(#clip0_250_2945)">
<path fill-rule="evenodd" clip-rule="evenodd" d="M13.4722 6.28732C13.5616 6.3236 13.643 6.37713 13.7117 6.44487C13.7804 6.5126 13.8351 6.59321 13.8727 6.68209C13.9103 6.77097 13.93 6.86638 13.9307 6.96287C13.9314 7.05936 13.913 7.15504 13.8768 7.24445L11.213 13.8229C11.5598 13.9454 11.9125 14.1286 12.2221 14.3754C12.7609 14.8055 13.1998 15.4531 13.1998 16.3142C13.1998 16.8383 13.3281 17.2743 13.5231 17.6309C13.8346 18.204 14.5184 18.4077 15.1709 18.4077C15.3658 18.4077 15.5526 18.4851 15.6904 18.6229C15.8282 18.7607 15.9056 18.9476 15.9056 19.1425C15.9056 19.3373 15.8282 19.5242 15.6904 19.662C15.5526 19.7998 15.3658 19.8772 15.1709 19.8772H15.0827V19.887H8.71588C7.6892 19.887 6.60569 19.2003 6.57826 18.0012C6.55572 16.996 6.76929 15.8528 7.37668 14.9799C7.88611 14.2481 8.65319 13.7357 9.69653 13.6466L12.516 6.69192C12.5523 6.60251 12.6058 6.52111 12.6735 6.45239C12.7413 6.38366 12.8219 6.32895 12.9108 6.29138C12.9996 6.25381 13.0951 6.23411 13.1915 6.23342C13.288 6.23272 13.3827 6.25104 13.4722 6.28732ZM19.4236 19.8772C19.6185 19.8772 19.8054 19.7998 19.9432 19.662C20.081 19.5242 20.1584 19.3373 20.1584 19.1425C20.1584 18.9476 20.081 18.7607 19.9432 18.6229C19.8054 18.4851 19.6185 18.4077 19.4236 18.4077H17.5358C17.3409 18.4077 17.154 18.4851 17.0163 18.6229C16.8785 18.7607 16.8011 18.9476 16.8011 19.1425C16.8011 19.3373 16.8785 19.5242 17.0163 19.662C17.154 19.7998 17.3409 19.8772 17.5358 19.8772H19.4236ZM19.2845 16.4758C19.2845 16.6707 19.2071 16.8576 19.0693 16.9954C18.9315 17.1332 18.7446 17.2106 18.5498 17.2106H16.6727C16.4779 17.2106 16.291 17.1332 16.1532 16.9954C16.0154 16.8576 15.938 16.6707 15.938 16.4758C15.938 16.281 16.0154 16.0941 16.1532 15.9563C16.291 15.8185 16.4779 15.7411 16.6727 15.7411H18.5498C18.7446 15.7411 18.9315 15.8185 19.0693 15.9563C19.2071 16.0941 19.2845 16.281 19.2845 16.4758ZM17.5358 14.445C17.7307 14.445 17.9176 14.3676 18.0553 14.2298C18.1931 14.092 18.2705 13.9051 18.2705 13.7102C18.2705 13.5154 18.1931 13.3285 18.0553 13.1907C17.9176 13.0529 17.7307 12.9755 17.5358 12.9755H15.6588C15.4639 12.9755 15.277 13.0529 15.1392 13.1907C15.0014 13.3285 14.924 13.5154 14.924 13.7102C14.924 13.9051 15.0014 14.092 15.1392 14.2298C15.277 14.3676 15.4639 14.445 15.6588 14.445H17.5358Z" fill="#566476"/>
</g>
<defs>
<clipPath id="clip0_250_2945">
<rect width="13.7153" height="13.7153" fill="white" transform="translate(6.51074 6.20215)"/>
</clipPath>
</defs>
</svg>
