<svg width="26" height="26" viewBox="0 0 26 26" fill="none" xmlns="http://www.w3.org/2000/svg">
<rect x="1.3788" y="1.4828" width="23.6668" height="23.6668" rx="11.8334" fill="white"/>
<rect x="1.3788" y="1.4828" width="23.6668" height="23.6668" rx="11.8334" stroke="#566476" stroke-width="1.43435"/>
<g clip-path="url(#clip0_250_2924)">
<path fill-rule="evenodd" clip-rule="evenodd" d="M12.0856 6.22168C12.2804 6.22168 12.4673 6.29909 12.6051 6.43688C12.7429 6.57467 12.8203 6.76156 12.8203 6.95643V8.10068C12.8203 8.29554 12.7429 8.48243 12.6051 8.62022C12.4673 8.75801 12.2804 8.83542 12.0856 8.83542C11.8907 8.83542 11.7038 8.75801 11.566 8.62022C11.4282 8.48243 11.3508 8.29554 11.3508 8.10068V6.95741C11.3508 6.76254 11.4282 6.57565 11.566 6.43786C11.7038 6.30007 11.8907 6.22266 12.0856 6.22266V6.22168ZM19.771 19.165C19.771 19.3599 19.6936 19.5468 19.5558 19.6845C19.418 19.8223 19.2312 19.8998 19.0363 19.8998H7.23133C7.03646 19.8998 6.84958 19.8223 6.71178 19.6845C6.57399 19.5468 6.49658 19.3599 6.49658 19.165C6.49658 18.9701 6.57399 18.7833 6.71178 18.6455C6.84958 18.5077 7.03646 18.4303 7.23133 18.4303H19.0363C19.2312 18.4303 19.418 18.5077 19.5558 18.6455C19.6936 18.7833 19.771 18.9701 19.771 19.165ZM9.84703 6.95643C9.84703 6.76156 9.76962 6.57467 9.63183 6.43688C9.49404 6.29909 9.30715 6.22168 9.11229 6.22168C8.91742 6.22168 8.73053 6.29909 8.59274 6.43688C8.45495 6.57467 8.37754 6.76156 8.37754 6.95643V8.10068C8.37754 8.19716 8.39654 8.29271 8.43347 8.38185C8.47039 8.471 8.52451 8.55199 8.59274 8.62022C8.66097 8.68845 8.74197 8.74257 8.83111 8.77949C8.92025 8.81642 9.0158 8.83542 9.11229 8.83542C9.20877 8.83542 9.30432 8.81642 9.39346 8.77949C9.48261 8.74257 9.5636 8.68845 9.63183 8.62022C9.70006 8.55199 9.75418 8.471 9.7911 8.38185C9.82803 8.29271 9.84703 8.19716 9.84703 8.10068V6.95643ZM15.0588 6.22168C15.2537 6.22168 15.4406 6.29909 15.5784 6.43688C15.7162 6.57467 15.7936 6.76156 15.7936 6.95643V8.10068C15.7936 8.29554 15.7162 8.48243 15.5784 8.62022C15.4406 8.75801 15.2537 8.83542 15.0588 8.83542C14.864 8.83542 14.6771 8.75801 14.5393 8.62022C14.4015 8.48243 14.3241 8.29554 14.3241 8.10068V6.95741C14.3241 6.76254 14.4015 6.57565 14.5393 6.43786C14.6771 6.30007 14.864 6.22266 15.0588 6.22266V6.22168ZM16.2883 9.83762C14.137 9.63875 11.2274 9.6172 8.91439 9.77296C8.56686 9.79504 8.2397 9.94462 7.99565 10.193C7.75159 10.4414 7.6078 10.7712 7.59185 11.119C7.56246 11.7842 7.56344 12.4445 7.5654 13.1469V13.674C7.5654 13.8876 7.57127 14.0854 7.58107 14.2726C7.66728 15.9615 9.10543 17.2743 10.7385 17.4055C11.2323 17.4447 11.7143 17.4731 12.1218 17.4731C12.5529 17.4731 13.0887 17.4418 13.6374 17.3987C14.9864 17.2919 16.2041 16.3818 16.6351 15.1161L16.8262 15.1063C18.1448 15.0338 19.4908 14.0002 19.4908 12.4915C19.4908 10.9828 18.1428 9.95322 16.8262 9.87975C16.6825 9.87178 16.5389 9.86525 16.3951 9.86015C16.3605 9.84869 16.3246 9.84113 16.2883 9.83762ZM18.0223 12.4925C18.0223 13.0215 17.5119 13.5652 16.8115 13.6338L16.8124 13.1469C16.8144 12.5278 16.8154 11.94 16.7958 11.3502C17.5051 11.4129 18.0223 11.9606 18.0223 12.4925Z" fill="#566476"/>
</g>
<defs>
<clipPath id="clip0_250_2924">
<rect width="13.7153" height="13.7153" fill="white" transform="translate(6.27637 6.20215)"/>
</clipPath>
</defs>
</svg>
