<svg width="29" height="30" viewBox="0 0 29 30" fill="none" xmlns="http://www.w3.org/2000/svg">
<path d="M12.7352 8.90039C11.4451 9.25323 10.6677 10.2442 10.6677 11.1787C10.6677 12.1132 11.4451 13.1042 12.7352 13.4556V8.90039ZM14.8026 15.7932V20.3471C16.0927 19.9956 16.87 19.0046 16.87 18.0701C16.87 17.1357 16.0927 16.1447 14.8026 15.7932Z" fill="#5E9894"/>
<path fill-rule="evenodd" clip-rule="evenodd" d="M27.5518 14.6247C27.5518 22.237 21.3812 28.4076 13.769 28.4076C6.15668 28.4076 -0.013916 22.237 -0.013916 14.6247C-0.013916 7.01239 6.15668 0.841797 13.769 0.841797C21.3812 0.841797 27.5518 7.01239 27.5518 14.6247ZM13.769 5.32123C14.0431 5.32123 14.306 5.43014 14.4999 5.624C14.6938 5.81786 14.8027 6.08079 14.8027 6.35495V6.79187C17.0493 7.19432 18.9375 8.88273 18.9375 11.179C18.9375 11.4531 18.8286 11.716 18.6348 11.9099C18.4409 12.1038 18.178 12.2127 17.9038 12.2127C17.6297 12.2127 17.3667 12.1038 17.1729 11.9099C16.979 11.716 16.8701 11.4531 16.8701 11.179C16.8701 10.2445 16.0928 9.25349 14.8027 8.90065V13.6833C17.0493 14.0858 18.9375 15.7742 18.9375 18.0704C18.9375 20.3666 17.0493 22.055 14.8027 22.4575V22.8944C14.8027 23.1686 14.6938 23.4315 14.4999 23.6253C14.306 23.8192 14.0431 23.9281 13.769 23.9281C13.4948 23.9281 13.2319 23.8192 13.038 23.6253C12.8442 23.4315 12.7352 23.1686 12.7352 22.8944V22.4575C10.4886 22.055 8.60038 20.3666 8.60038 18.0704C8.60038 17.7962 8.70929 17.5333 8.90315 17.3394C9.09701 17.1456 9.35994 17.0367 9.6341 17.0367C9.90826 17.0367 10.1712 17.1456 10.365 17.3394C10.5589 17.5333 10.6678 17.7962 10.6678 18.0704C10.6678 19.0049 11.4452 19.9959 12.7352 20.3473V15.566C10.4886 15.1636 8.60038 13.4752 8.60038 11.179C8.60038 8.88273 10.4886 7.19432 12.7352 6.79187V6.35495C12.7352 6.08079 12.8442 5.81786 13.038 5.624C13.2319 5.43014 13.4948 5.32123 13.769 5.32123Z" fill="#5E9894"/>
</svg>
