<svg width="32" height="32" viewBox="0 0 32 32" fill="none" xmlns="http://www.w3.org/2000/svg">
<rect x="1.20799" y="1.39647" width="29.5835" height="29.5835" rx="14.7918" fill="white"/>
<rect x="1.20799" y="1.39647" width="29.5835" height="29.5835" rx="14.7918" stroke="#5E9894" stroke-width="1.79294"/>
<path fill-rule="evenodd" clip-rule="evenodd" d="M19.007 8.80566C18.4047 8.80957 17.8097 8.93825 17.2596 9.18358C16.7095 9.42891 16.2162 9.78558 15.8109 10.2311C15.1745 10.9259 14.7508 11.7886 14.5899 12.717L14.4467 12.7011C14.3266 12.6875 14.205 12.6977 14.0889 12.7312C13.9727 12.7647 13.8644 12.8207 13.77 12.8962C13.6755 12.9716 13.5969 13.065 13.5387 13.1709C13.4804 13.2768 13.4436 13.3931 13.4304 13.5132C13.4172 13.6334 13.4278 13.7549 13.4617 13.871C13.4955 13.987 13.552 14.0952 13.6277 14.1893C13.7035 14.2835 13.7971 14.3618 13.9031 14.4197C14.0092 14.4777 14.1257 14.5141 14.2458 14.5269C17.8241 14.9224 19.9254 14.9384 23.767 14.5269C24.0009 14.4914 24.2121 14.3669 24.3566 14.1795C24.501 13.9921 24.5675 13.7561 24.5423 13.5208C24.517 13.2855 24.4019 13.0691 24.2209 12.9166C24.04 12.7641 23.8072 12.6873 23.571 12.7023L23.4241 12.717C23.2633 11.7886 22.8395 10.9259 22.2032 10.2311C21.7979 9.7854 21.3047 9.42862 20.7545 9.18327C20.2044 8.93792 19.6094 8.80935 19.007 8.80566ZM20.8892 19.0223L17.84 19.7461L16.0594 20.1894C15.6169 20.2992 15.1554 20.3088 14.7087 20.2175L11.6069 19.5844C11.4524 19.5479 11.3181 19.4529 11.2323 19.3193C11.1465 19.1858 11.116 19.0241 11.1471 18.8684C11.1783 18.7128 11.2686 18.5753 11.3992 18.485C11.5297 18.3947 11.6903 18.3586 11.8469 18.3843L13.2319 18.655L13.5307 18.7088C13.803 18.7588 14.084 18.7009 14.3143 18.5473C14.5446 18.3936 14.7061 18.1564 14.7645 17.8858C14.8229 17.6152 14.7737 17.3325 14.6273 17.0975C14.4809 16.8626 14.2488 16.6938 13.9801 16.6271L11.1599 15.9046C10.5763 15.7559 9.97266 15.7021 9.37201 15.7454L8.26254 15.825C8.10812 15.8361 7.96366 15.9053 7.85823 16.0187C7.75281 16.1321 7.69424 16.2812 7.69434 16.436V21.7715C7.69441 21.898 7.73365 22.0214 7.80667 22.1246C7.87969 22.2279 7.9829 22.3061 8.10212 22.3483L11.8053 23.6598C13.7678 24.355 15.9171 24.3062 17.8461 23.5227L21.8125 21.9111C22.1678 21.7669 22.4556 21.4939 22.6181 21.1466C22.7807 20.7993 22.806 20.4034 22.6891 20.0382C22.5723 19.673 22.3218 19.3654 21.9878 19.1771C21.6538 18.9887 21.2622 18.9334 20.8892 19.0223Z" fill="#5E9894"/>
</svg>
