<svg width="28" height="27" viewBox="0 0 28 27" fill="none" xmlns="http://www.w3.org/2000/svg">
<rect x="1.57481" y="0.753035" width="24.8502" height="24.8502" rx="12.4251" fill="white"/>
<rect x="1.57481" y="0.753035" width="24.8502" height="24.8502" rx="12.4251" stroke="#566476" stroke-width="1.50607"/>
<path fill-rule="evenodd" clip-rule="evenodd" d="M16.5258 6.97675C16.0199 6.98003 15.5201 7.08812 15.058 7.2942C14.596 7.50028 14.1816 7.79988 13.8411 8.1741C13.3065 8.75773 12.9506 9.48244 12.8155 10.2623L12.6952 10.2489C12.5943 10.2375 12.4921 10.2461 12.3946 10.2742C12.297 10.3023 12.206 10.3494 12.1267 10.4128C12.0474 10.4762 11.9814 10.5546 11.9324 10.6435C11.8835 10.7325 11.8526 10.8302 11.8415 10.9311C11.8304 11.032 11.8393 11.1341 11.8678 11.2316C11.8962 11.3291 11.9436 11.4199 12.0072 11.499C12.0709 11.5781 12.1495 11.6439 12.2386 11.6926C12.3277 11.7412 12.4255 11.7718 12.5265 11.7826C15.5322 12.1148 17.2973 12.1282 20.5242 11.7826C20.7207 11.7528 20.8981 11.6482 21.0195 11.4908C21.1408 11.3333 21.1967 11.1351 21.1754 10.9375C21.1542 10.7398 21.0575 10.558 20.9055 10.4299C20.7536 10.3018 20.558 10.2373 20.3596 10.2499L20.2362 10.2623C20.1011 9.48244 19.7452 8.75773 19.2106 8.1741C18.8702 7.79973 18.4559 7.50003 17.9938 7.29394C17.5316 7.08785 17.0318 6.97985 16.5258 6.97675ZM18.1069 15.5588L15.5455 16.1667L14.0499 16.5391C13.6782 16.6313 13.2905 16.6394 12.9153 16.5627L10.3097 16.0309C10.1799 16.0003 10.0671 15.9204 9.99509 15.8082C9.92305 15.696 9.8974 15.5602 9.92355 15.4295C9.9497 15.2987 10.0256 15.1832 10.1353 15.1074C10.2449 15.0315 10.3798 15.0012 10.5113 15.0228L11.6747 15.2502L11.9257 15.2954C12.1544 15.3374 12.3905 15.2887 12.584 15.1597C12.7774 15.0307 12.9131 14.8314 12.9621 14.6041C13.0112 14.3768 12.9699 14.1393 12.8469 13.9419C12.7239 13.7446 12.5289 13.6028 12.3032 13.5467L9.93427 12.9398C9.44408 12.8149 8.93698 12.7698 8.43244 12.8061L7.50049 12.873C7.37077 12.8823 7.24942 12.9405 7.16087 13.0357C7.07231 13.131 7.02312 13.2562 7.02319 13.3863V17.8681C7.02325 17.9743 7.05622 18.0779 7.11755 18.1647C7.17889 18.2514 7.26559 18.3171 7.36573 18.3526L10.4764 19.4542C12.1249 20.0382 13.9303 19.9972 15.5507 19.339L18.8825 17.9853C19.1809 17.8642 19.4226 17.6348 19.5592 17.3431C19.6957 17.0514 19.717 16.7189 19.6188 16.4121C19.5207 16.1053 19.3102 15.847 19.0297 15.6887C18.7491 15.5305 18.4202 15.4841 18.1069 15.5588Z" fill="#566476"/>
</svg>
