<svg width="27" height="26" viewBox="0 0 27 26" fill="none" xmlns="http://www.w3.org/2000/svg">
<rect x="1.67763" y="1.4828" width="23.6668" height="23.6668" rx="11.8334" fill="white"/>
<rect x="1.67763" y="1.4828" width="23.6668" height="23.6668" rx="11.8334" stroke="#566476" stroke-width="1.43435"/>
<g clip-path="url(#clip0_250_2989)">
<path d="M12.9254 8.9897C13.1618 8.9897 13.354 8.79747 13.354 8.56109V8.39394C13.24 8.4968 13.0906 8.56109 12.9254 8.56109C12.7602 8.56109 12.6108 8.49659 12.4968 8.39394V8.56109C12.4968 8.79747 12.689 8.9897 12.9254 8.9897ZM12.2825 8.34679H12.4497C12.347 8.23278 12.2825 8.08341 12.2825 7.91819C12.2825 7.75296 12.347 7.60359 12.4497 7.48958H12.2825C12.0461 7.48958 11.8539 7.68181 11.8539 7.91819C11.8539 8.15456 12.0461 8.34679 12.2825 8.34679ZM13.354 7.44244V7.27528C13.354 7.03891 13.1618 6.84668 12.9254 6.84668C12.689 6.84668 12.4968 7.03891 12.4968 7.27528V7.44244C12.6108 7.33979 12.7602 7.27528 12.9254 7.27528C13.0906 7.27528 13.24 7.33979 13.354 7.44244ZM11.4253 9.15685C11.5424 9.04975 11.6952 8.99015 11.8539 8.9897C12.2084 8.9897 12.4968 9.27815 12.4968 9.6326C12.4963 9.79127 12.4367 9.94406 12.3296 10.0612H12.4968C12.5725 10.061 12.6468 10.0408 12.7121 10.0026C12.7775 9.96447 12.8316 9.90969 12.8689 9.84386C12.9063 9.77803 12.9255 9.70349 12.9248 9.62781C12.924 9.55213 12.9032 9.478 12.8645 9.41294C12.6819 9.40016 12.5082 9.32924 12.3688 9.21059C12.2294 9.09193 12.1316 8.93176 12.0898 8.75353C11.9604 8.72297 11.8399 8.66257 11.738 8.57716C11.6482 8.60276 11.5691 8.65682 11.5127 8.73123C11.4564 8.80563 11.4257 8.89634 11.4253 8.9897V9.15685Z" fill="#566476"/>
<path d="M12.9257 8.1327C13.0441 8.1327 13.14 8.03676 13.14 7.9184C13.14 7.80005 13.0441 7.7041 12.9257 7.7041C12.8074 7.7041 12.7114 7.80005 12.7114 7.9184C12.7114 8.03676 12.8074 8.1327 12.9257 8.1327Z" fill="#566476"/>
<path d="M8.63916 12.2043C8.63916 12.4407 8.83139 12.6329 9.06776 12.6329C9.30414 12.6329 9.49637 12.4407 9.49637 12.2043V12.0372C9.38236 12.14 9.23299 12.2043 9.06776 12.2043C8.90254 12.2043 8.75317 12.1398 8.63916 12.0372V12.2043ZM9.91104 15.7984L9.35386 13.0122C9.26428 13.044 9.16806 13.0615 9.06776 13.0615V16.2685C9.23283 16.2513 9.39267 16.2008 9.53762 16.1199C9.68257 16.0391 9.80961 15.9297 9.91104 15.7984ZM9.71067 11.99C9.94704 11.99 10.1393 11.7978 10.1393 11.5614C10.1393 11.325 9.94704 11.1328 9.71067 11.1328H9.54351C9.64638 11.2468 9.71067 11.3962 9.71067 11.5614C9.71067 11.7266 9.64616 11.876 9.54351 11.99H9.71067Z" fill="#566476"/>
<path d="M9.06831 11.7763C9.18666 11.7763 9.28261 11.6803 9.28261 11.562C9.28261 11.4436 9.18666 11.3477 9.06831 11.3477C8.94995 11.3477 8.854 11.4436 8.854 11.562C8.854 11.6803 8.94995 11.7763 9.06831 11.7763Z" fill="#566476"/>
<path d="M9.28261 16.6661C9.2119 16.6809 9.14032 16.6911 9.06831 16.6967V16.8542C9.06831 17.0793 9.0023 17.2972 8.87736 17.4845C8.87029 17.4952 8.8615 17.5046 8.854 17.5154V18.4191H9.28261V16.6661ZM17.9794 10.2381C18.0951 10.1497 18.2315 10.0926 18.3756 10.072C18.0384 9.2446 17.462 8.53655 16.7203 8.03838C15.9785 7.54021 15.1051 7.27456 14.2115 7.27539H14.1344C14.2644 7.39071 14.3562 7.54291 14.3976 7.71171C15.9746 7.78543 17.383 8.78622 17.9794 10.2381Z" fill="#566476"/>
<path d="M9.92524 10.2753C10.0436 10.2753 10.1395 10.1793 10.1395 10.061C10.1395 9.94263 10.0436 9.84668 9.92524 9.84668C9.80688 9.84668 9.71094 9.94263 9.71094 10.061C9.71094 10.1793 9.80688 10.2753 9.92524 10.2753Z" fill="#566476"/>
<path d="M16.1396 8.69141V9.18473C16.1404 9.99117 16.4606 10.7645 17.0301 11.3355C17.0707 11.1863 17.1508 11.0509 17.2619 10.9434C17.3731 10.836 17.5112 10.7606 17.6616 10.7251C17.6661 10.7054 17.6743 10.687 17.68 10.6679C17.4128 9.83363 16.8552 9.14058 16.1396 8.69141ZM18.7113 17.5146C18.7038 17.5041 18.695 17.4947 18.6879 17.4838C18.5632 17.2972 18.4968 17.0777 18.497 16.8533V16.6958C18.4249 16.6904 18.3533 16.6801 18.2827 16.6651V18.4183H18.7113V17.5146ZM18.0684 10.9178V11.0849C18.1824 10.9821 18.3317 10.9178 18.497 10.9178C18.6622 10.9178 18.8116 10.9823 18.9256 11.0849V10.9178C18.9256 10.6814 18.7333 10.4892 18.497 10.4892C18.2606 10.4892 18.0684 10.6814 18.0684 10.9178Z" fill="#566476"/>
<path d="M14.854 8.19238V9.18524C14.854 11.0467 15.999 12.6533 17.7248 13.2587L17.8292 12.7366C17.7485 12.6373 17.6913 12.521 17.6618 12.3966C17.5432 12.3688 17.4318 12.3161 17.3351 12.2421C17.2383 12.168 17.1585 12.0742 17.1007 11.9669C16.23 11.3186 15.7112 10.2833 15.7112 9.18503V8.46283C15.4378 8.33758 15.1498 8.24673 14.854 8.19238ZM17.8542 11.1324C17.6179 11.1324 17.4256 11.3246 17.4256 11.561C17.4256 11.7974 17.6179 11.9896 17.8542 11.9896H18.0214C17.9185 11.8756 17.8542 11.7262 17.8542 11.561C17.8542 11.3958 17.9187 11.2464 18.0214 11.1324H17.8542ZM18.4971 16.2681V13.0611C18.3968 13.0611 18.3006 13.0435 18.2113 13.0118L17.6541 15.7979C17.7554 15.9293 17.8824 16.0387 18.0274 16.1195C18.1723 16.2004 18.3321 16.2509 18.4971 16.2681ZM19.6336 17.5614H19.7587L19.2318 12.6424C19.1569 12.7675 19.0516 12.8716 18.9257 12.9452V16.8536C18.9257 16.9937 18.9669 17.1294 19.0447 17.2462C19.1092 17.3433 19.1967 17.4228 19.2995 17.4779C19.4022 17.5329 19.517 17.5616 19.6336 17.5614ZM18.9257 12.2039V12.0367C18.8117 12.1396 18.6624 12.2039 18.4971 12.2039C18.3319 12.2039 18.1825 12.1394 18.0685 12.0367V12.2039C18.0685 12.4403 18.2608 12.6325 18.4971 12.6325C18.7335 12.6325 18.9257 12.4403 18.9257 12.2039ZM19.14 11.9896C19.3764 11.9896 19.5686 11.7974 19.5686 11.561C19.5686 11.3246 19.3764 11.1324 19.14 11.1324H18.9729C19.0757 11.2464 19.14 11.3958 19.14 11.561C19.14 11.7262 19.0755 11.8756 18.9729 11.9896H19.14Z" fill="#566476"/>
<path d="M18.4975 11.7763C18.6159 11.7763 18.7118 11.6803 18.7118 11.562C18.7118 11.4436 18.6159 11.3477 18.4975 11.3477C18.3791 11.3477 18.2832 11.4436 18.2832 11.562C18.2832 11.6803 18.3791 11.7763 18.4975 11.7763Z" fill="#566476"/>
<path d="M13.5683 7.48959H13.4012C13.5038 7.6036 13.5683 7.75297 13.5683 7.91819C13.5683 8.08342 13.5038 8.23279 13.4012 8.3468H13.5683C13.8047 8.3468 13.9969 8.15457 13.9969 7.91819C13.9969 7.68182 13.8047 7.48959 13.5683 7.48959ZM8.76517 9.38166C8.861 9.3071 8.97172 9.25397 9.08984 9.22586C9.1171 9.11265 9.16768 9.00638 9.23835 8.91384L8.38993 8.7724L8.46044 8.34958L9.2885 8.48759C9.14911 8.33349 9.07097 8.13369 9.06884 7.92591C8.5618 7.96277 8.06612 8.12949 7.64031 8.40744L7.72581 8.55017C7.96109 8.94323 8.33006 9.2384 8.76517 9.38166ZM8.42508 11.1327C8.1887 11.1327 7.99647 11.3249 7.99647 11.5613C7.99647 11.7977 8.1887 11.9899 8.42508 11.9899H8.59223C8.48958 11.8759 8.42508 11.7265 8.42508 11.5613C8.42508 11.3961 8.48958 11.2467 8.59223 11.1327H8.42508ZM9.28228 9.63261C9.04591 9.63261 8.85368 9.82483 8.85368 10.0612C8.85368 10.0711 8.85668 10.0807 8.85754 10.0906C8.92526 10.0732 8.99491 10.0612 9.06798 10.0612C9.14342 10.0612 9.21564 10.0739 9.2855 10.0923C9.28486 10.0818 9.28228 10.0719 9.28228 10.0612C9.28228 9.89598 9.34679 9.74661 9.44944 9.63261H9.28228ZM9.18113 7.49366C9.25379 7.36736 9.35722 7.2615 9.4818 7.18592C9.1547 6.96396 8.7683 6.84574 8.373 6.84669H8.21078V7.01041C8.21078 7.22128 8.24935 7.43237 8.32157 7.63103C8.6008 7.54917 8.88968 7.50245 9.18113 7.49366ZM7.93154 17.5618C8.16877 17.5618 8.38886 17.4439 8.52044 17.2465C8.59811 17.1303 8.63951 16.9937 8.63938 16.8539V12.9455C8.51348 12.8721 8.40821 12.768 8.33336 12.6429L7.80639 17.5618H7.93154ZM13.354 9.63261C13.3537 9.76668 13.3218 9.89879 13.2608 10.0182C13.1999 10.1377 13.1117 10.2411 13.0034 10.3201C12.8163 11.0951 12.4358 11.8101 11.8975 12.3983C11.3592 12.9864 10.6806 13.4286 9.92519 13.6835L10.0092 14.1031C12.1149 13.4088 13.5683 11.4218 13.5683 9.18536V9.12685C13.4935 9.21172 13.4012 9.27965 13.2985 9.32958C13.3347 9.42559 13.354 9.52803 13.354 9.63261ZM17.6403 13.6823C15.7103 13.0325 14.4255 11.2519 14.4255 9.18536V8.1415C14.4148 8.14085 14.4039 8.14064 14.3932 8.14021C14.3344 8.35829 14.192 8.5444 13.9969 8.65818V9.18557C13.9969 11.422 15.4503 13.409 17.556 14.1034L17.6403 13.6823ZM16.9971 18.8476H19.9974V19.2762H16.9971V18.8476ZM7.56787 18.8476H10.5683V19.2762H7.56787V18.8476ZM9.06798 10.4898C8.83161 10.4898 8.63938 10.682 8.63938 10.9184V11.0856C8.75339 10.9829 8.90276 10.9184 9.06798 10.9184C9.23321 10.9184 9.38258 10.9829 9.49659 11.0856V10.9184C9.49659 10.682 9.30436 10.4898 9.06798 10.4898ZM10.4009 10.4898H10.5681C10.6658 10.4898 10.7565 10.4547 10.83 10.3972C10.7249 10.3452 10.6315 10.2722 10.5557 10.1827C10.5332 10.2973 10.4797 10.4036 10.4009 10.4898ZM10.3576 9.58867C10.361 9.52395 10.3717 9.45982 10.3896 9.39752C10.2746 9.37292 10.1659 9.32493 10.0703 9.25655C9.97467 9.18816 9.89413 9.10083 9.83368 8.99999C9.73826 9.02092 9.65285 9.07379 9.59155 9.14985C9.53026 9.22591 9.49676 9.32062 9.49659 9.4183V9.58546C9.61368 9.47836 9.7665 9.41876 9.92519 9.4183C10.0856 9.41876 10.24 9.47958 10.3576 9.58867ZM9.8954 10.7011C9.89754 10.7095 9.9014 10.7174 9.90333 10.726C10.0468 10.7594 10.1791 10.8293 10.2876 10.9289C10.3303 10.8617 10.3533 10.7838 10.3538 10.7041V10.537C10.2398 10.6398 10.0904 10.7041 9.92519 10.7041C9.9149 10.7041 9.90547 10.7015 9.8954 10.7011ZM11.211 9.204C10.9746 9.204 10.7824 9.39623 10.7824 9.63261C10.7824 9.86898 10.9746 10.0612 11.211 10.0612H11.3782C11.2753 9.9472 11.211 9.79783 11.211 9.63261C11.211 9.46738 11.2755 9.31801 11.3782 9.204H11.211Z" fill="#566476"/>
<path d="M12.3231 10.9885C12.1842 11.0815 12.0209 11.1314 11.8538 11.1321C11.7058 11.1319 11.5605 11.0933 11.4319 11.0202C11.3033 10.9471 11.1958 10.8419 11.12 10.7148C11.0169 10.8019 10.8944 10.8649 10.7608 10.8957C10.7245 11.0535 10.6438 11.1976 10.5283 11.311C10.5525 11.3905 10.568 11.4737 10.568 11.5607C10.5677 11.7545 10.5019 11.9426 10.3812 12.0942C10.2605 12.2459 10.092 12.3523 9.90321 12.396C9.87357 12.5205 9.81637 12.6367 9.73584 12.7361L9.84063 13.2597C10.3861 13.0678 10.8871 12.7677 11.3137 12.3775C11.7403 11.9872 12.0836 11.5148 12.3231 10.9885Z" fill="#566476"/>
<path d="M11.854 9.84755C11.9723 9.84755 12.0683 9.7516 12.0683 9.63325C12.0683 9.51489 11.9723 9.41895 11.854 9.41895C11.7356 9.41895 11.6396 9.51489 11.6396 9.63325C11.6396 9.7516 11.7356 9.84755 11.854 9.84755Z" fill="#566476"/>
<path d="M11.4253 10.2755C11.4253 10.5119 11.6175 10.7041 11.8539 10.7041C12.0903 10.7041 12.2825 10.5119 12.2825 10.2755V10.1083C12.1685 10.2112 12.0191 10.2755 11.8539 10.2755C11.6887 10.2755 11.5393 10.211 11.4253 10.1083V10.2755ZM9.92519 8.34679H10.0923C9.98969 8.23278 9.92519 8.08341 9.92519 7.91819C9.92519 7.75296 9.98969 7.60359 10.0923 7.48958H9.92519C9.68881 7.48958 9.49658 7.68181 9.49658 7.91819C9.49658 8.15456 9.68881 8.34679 9.92519 8.34679ZM10.5681 8.9897C10.6009 8.9897 10.6328 8.98241 10.6647 8.97512C10.7671 8.88882 10.8884 8.82788 11.0188 8.79725C11.0484 8.67289 11.1052 8.55666 11.1852 8.45696C11.2653 8.35726 11.3664 8.27659 11.4814 8.22078C11.4446 8.12413 11.4256 8.02161 11.4253 7.91819C11.4253 7.80332 11.4499 7.69489 11.4911 7.59481C11.4134 7.52716 11.314 7.4898 11.211 7.48958H11.0438C11.1509 7.60672 11.2105 7.75951 11.211 7.91819C11.211 8.27264 10.9225 8.56109 10.5681 8.56109C10.4094 8.56055 10.2566 8.50097 10.1395 8.39394V8.56109C10.1395 8.79747 10.3317 8.9897 10.5681 8.9897ZM10.9967 7.44244V7.27528C10.9967 7.03891 10.8045 6.84668 10.5681 6.84668C10.3317 6.84668 10.1395 7.03891 10.1395 7.27528V7.44244C10.2535 7.33979 10.4029 7.27528 10.5681 7.27528C10.7333 7.27528 10.8827 7.33979 10.9967 7.44244Z" fill="#566476"/>
<path d="M10.5683 8.1327C10.6867 8.1327 10.7826 8.03676 10.7826 7.9184C10.7826 7.80005 10.6867 7.7041 10.5683 7.7041C10.4499 7.7041 10.354 7.80005 10.354 7.9184C10.354 8.03676 10.4499 8.1327 10.5683 8.1327Z" fill="#566476"/>
</g>
<defs>
<clipPath id="clip0_250_2989">
<rect width="13.7153" height="13.7153" fill="white" transform="translate(6.92529 6.20215)"/>
</clipPath>
</defs>
</svg>
