<svg width="26" height="26" viewBox="0 0 26 26" fill="none" xmlns="http://www.w3.org/2000/svg">
<rect x="1.46571" y="1.4828" width="23.6668" height="23.6668" rx="11.8334" fill="white"/>
<rect x="1.46571" y="1.4828" width="23.6668" height="23.6668" rx="11.8334" stroke="#566476" stroke-width="1.43435"/>
<g clip-path="url(#clip0_250_2979)">
<path d="M17.5815 11.3924C19.047 11.3924 19.8719 10.5676 19.8719 9.10198C19.8719 7.6364 19.047 6.81152 17.5815 6.81152C16.1159 6.81152 15.291 7.6364 15.291 9.10198C15.291 10.5676 16.1159 11.3924 17.5815 11.3924Z" fill="#566476"/>
<path fill-rule="evenodd" clip-rule="evenodd" d="M14.0881 8.6453C12.759 8.60403 11.4288 8.61776 10.1008 8.68644C8.68325 8.75894 7.54684 9.89045 7.40675 11.3021C7.31029 12.1872 7.25798 13.0766 7.25 13.9668C7.25 14.873 7.31858 15.7626 7.40675 16.6315C7.54684 18.0442 8.68325 19.1757 10.1008 19.2472C11.7625 19.3334 13.4276 19.3334 15.0893 19.2472C16.5068 19.1757 17.6433 18.0442 17.7834 16.6315C17.8715 15.7626 17.9401 14.873 17.9401 13.9668C17.9401 13.5093 17.9225 13.0557 17.8941 12.6071C17.7902 12.6129 17.6864 12.6169 17.5815 12.6169C16.6234 12.6169 15.7016 12.3425 15.0207 11.6627C14.3398 10.9818 14.0665 10.0599 14.0665 9.10182C14.0663 8.94939 14.0735 8.79703 14.0881 8.6453Z" fill="#566476"/>
</g>
<defs>
<clipPath id="clip0_250_2979">
<rect width="13.7153" height="13.7153" fill="white" transform="translate(6.70312 6.20215)"/>
</clipPath>
</defs>
</svg>
