<svg width="26" height="26" viewBox="0 0 26 26" fill="none" xmlns="http://www.w3.org/2000/svg">
<rect x="0.753309" y="1.4828" width="23.6668" height="23.6668" rx="11.8334" fill="white"/>
<rect x="0.753309" y="1.4828" width="23.6668" height="23.6668" rx="11.8334" stroke="#566476" stroke-width="1.43435"/>
<g clip-path="url(#clip0_250_2971)">
<path fill-rule="evenodd" clip-rule="evenodd" d="M5.92285 7.91639C5.92285 7.72152 6.00026 7.53464 6.13805 7.39684C6.27585 7.25905 6.46273 7.18164 6.6576 7.18164H10.5763C10.7711 7.18164 10.958 7.25905 11.0958 7.39684C11.2336 7.53464 11.311 7.72152 11.311 7.91639C11.311 8.11126 11.2336 8.29814 11.0958 8.43593C10.958 8.57373 10.7711 8.65114 10.5763 8.65114H9.35168V10.0236C11.3228 9.93548 13.7484 9.93548 15.7195 10.0236V8.65114H14.4949C14.3 8.65114 14.1132 8.57373 13.9754 8.43593C13.8376 8.29814 13.7602 8.11126 13.7602 7.91639C13.7602 7.72152 13.8376 7.53464 13.9754 7.39684C14.1132 7.25905 14.3 7.18164 14.4949 7.18164H18.4136C18.6084 7.18164 18.7953 7.25905 18.9331 7.39684C19.0709 7.53464 19.1483 7.72152 19.1483 7.91639C19.1483 8.11126 19.0709 8.29814 18.9331 8.43593C18.7953 8.57373 18.6084 8.65114 18.4136 8.65114H17.189V10.1089L17.5603 10.1324C18.3048 10.1794 18.9583 10.7398 18.8495 11.4696C18.8054 11.7665 18.7437 12.0574 18.681 12.3317C18.5125 13.0704 17.7993 13.6288 16.9441 13.6758L16.608 13.6954C15.2519 13.7732 13.894 13.8173 12.5356 13.8277C11.3002 13.8277 9.60639 13.7591 8.46312 13.6954L8.1271 13.6758C7.27283 13.6288 6.55963 13.0704 6.39113 12.3327C6.32549 12.0509 6.27091 11.7665 6.22753 11.4804C6.12172 10.7496 6.7683 10.1794 7.52362 10.1314L7.88218 10.1089V8.65114H6.6576C6.46273 8.65114 6.27585 8.57373 6.13805 8.43593C6.00026 8.29814 5.92285 8.11126 5.92285 7.91639ZM8.00464 15.6851C8.12893 15.4075 8.27847 15.1419 8.45137 14.8916C8.48369 14.8945 8.51602 14.8975 8.54933 14.8985L8.88438 14.918H8.89809C10.0335 14.9827 11.2659 15.0523 12.5356 15.0523C13.8062 15.0523 15.0376 14.9827 16.1731 14.918H16.1878L16.5228 14.8985C16.5551 14.8975 16.5875 14.8945 16.6208 14.8916C17.1939 15.72 17.5002 16.7037 17.4986 17.7111C17.498 18.1549 17.3215 18.5803 17.0076 18.894C16.6937 19.2077 16.2681 19.3841 15.8243 19.3843H15.4746C15.2797 19.3843 15.0928 19.3069 14.955 19.1691C14.8172 19.0313 14.7398 18.8445 14.7398 18.6496C14.7398 18.4547 14.8172 18.2678 14.955 18.13C15.0928 17.9923 15.2797 17.9148 15.4746 17.9148H15.8243C15.8787 17.9148 15.9309 17.8933 15.9694 17.8549C16.008 17.8166 16.0298 17.7645 16.03 17.7101C16.031 16.8241 15.6935 15.9711 15.0866 15.3256C15.0205 15.2554 14.9689 15.1728 14.9348 15.0826L14.9309 15.1336C14.8476 16.123 14.1079 16.8999 13.2458 16.9724C13.1468 16.98 13.0481 16.9914 12.95 17.0067C12.8138 17.0269 12.6761 17.0348 12.5385 17.0302C12.2916 17.0302 12.229 17.0204 12.128 17.0067C12.0302 16.9915 11.9319 16.98 11.8332 16.9724C10.9711 16.8999 10.2304 16.123 10.1481 15.1336L10.1423 15.0679C10.1085 15.1638 10.0551 15.2515 9.98552 15.3256C9.37877 15.9708 9.04132 16.8234 9.0421 17.7091C9.0421 17.8228 9.13321 17.9158 9.24685 17.9158H9.59659C9.79146 17.9158 9.97835 17.9932 10.1161 18.131C10.2539 18.2688 10.3313 18.4557 10.3313 18.6506C10.3313 18.8454 10.2539 19.0323 10.1161 19.1701C9.97835 19.3079 9.79146 19.3853 9.59659 19.3853H9.24685C8.80255 19.3853 8.37645 19.2088 8.06229 18.8947C7.74812 18.5805 7.57163 18.1544 7.57163 17.7101C7.57163 17.0126 7.71858 16.3219 8.00464 15.6851Z" fill="#566476"/>
</g>
<defs>
<clipPath id="clip0_250_2971">
<rect width="13.7153" height="13.7153" fill="white" transform="translate(5.67822 6.20215)"/>
</clipPath>
</defs>
</svg>
