<svg width="28" height="28" viewBox="0 0 28 28" fill="none" xmlns="http://www.w3.org/2000/svg">
<path fill-rule="evenodd" clip-rule="evenodd" d="M6.08822 4.34334V1.66313C6.08822 1.25985 6.24841 0.873094 6.53357 0.587936C6.81873 0.302778 7.20548 0.142578 7.60875 0.142578C8.01202 0.142578 8.39878 0.302778 8.68393 0.587936C8.96909 0.873094 9.12929 1.25985 9.12929 1.66313V4.04532C11.3189 3.88312 13.1658 3.83244 14.1917 3.83244C15.2155 3.83244 17.0563 3.88515 19.2398 4.04329V1.66313C19.2398 1.25985 19.4 0.873094 19.6852 0.587936C19.9703 0.302778 20.3571 0.142578 20.7604 0.142578C21.1636 0.142578 21.5504 0.302778 21.8356 0.587936C22.1207 0.873094 22.2809 1.25985 22.2809 1.66313V4.33929C23.5007 4.566 24.631 5.13456 25.5401 5.97876C26.4493 6.82296 27.0999 7.90807 27.4163 9.10773C27.5663 9.68351 27.0919 10.1985 26.4979 10.1985H1.88546C1.28941 10.1985 0.817025 9.68351 0.967051 9.10773C1.28301 7.9107 1.93182 6.82776 2.83823 5.9845C3.74465 5.14123 4.87154 4.57218 6.08822 4.34334ZM0.559548 13.6957C0.570547 13.4367 0.681392 13.1919 0.868851 13.0128C1.05631 12.8336 1.30583 12.734 1.56513 12.7347H26.8182C27.3575 12.7347 27.8035 13.1564 27.8238 13.6957C27.8623 14.6141 27.8765 15.3683 27.8765 15.8488C27.8765 16.8544 27.8136 19.0521 27.6068 21.4688C27.4771 22.9944 26.8168 24.4263 25.7408 25.5156C24.6649 26.6049 23.2412 27.2828 21.7173 27.4313C19.2167 27.6893 16.7054 27.8314 14.1917 27.8571C11.6779 27.8314 9.16665 27.6893 6.66602 27.4313C5.14181 27.2827 3.71789 26.6046 2.64187 25.5148C1.56586 24.4251 0.905798 22.9927 0.776478 21.4667C0.615241 19.5975 0.525295 17.7229 0.506836 15.8468C0.506836 15.3663 0.521028 14.6141 0.559548 13.6957Z" fill="#5E9894"/>
</svg>
