<svg width="26" height="26" viewBox="0 0 26 26" fill="none" xmlns="http://www.w3.org/2000/svg">
<rect x="1.04091" y="1.4828" width="23.6668" height="23.6668" rx="11.8334" fill="white"/>
<rect x="1.04091" y="1.4828" width="23.6668" height="23.6668" rx="11.8334" stroke="#566476" stroke-width="1.43435"/>
<g clip-path="url(#clip0_250_2962)">
<path d="M13.8295 7.34822C13.7201 7.13215 13.553 6.95063 13.3467 6.82382C13.1404 6.69702 12.903 6.62988 12.6608 6.62988C12.4187 6.62988 12.1813 6.69702 11.9749 6.82382C11.7686 6.95063 11.6015 7.13215 11.4922 7.34822L10.1235 9.9707L7.31016 10.5213C6.26722 10.7253 5.89119 12.0148 6.58696 12.7838L8.56625 14.9708L8.19594 17.9539C8.06707 18.9911 9.11029 19.8357 10.0878 19.3508L12.6608 18.0744L15.2339 19.3508C16.2114 19.8357 17.2549 18.9908 17.126 17.9536L16.7554 14.9711L18.735 12.7838C19.4305 12.0148 19.0547 10.7253 18.0118 10.5213L15.1985 9.9707L13.8295 7.34822Z" fill="#566476"/>
<path fill-rule="evenodd" clip-rule="evenodd" d="M13.8755 12.4161H12.1325L12.0125 13.1336C12.1776 13.0997 12.3457 13.0827 12.5142 13.0827H13.042C13.8706 13.0827 14.5421 13.7542 14.5421 14.5828V14.9163C14.5421 15.7449 13.8706 16.4164 13.042 16.4164H12.3754C12.0652 16.4164 11.7626 16.3202 11.5093 16.1411C11.256 15.962 11.0644 15.7088 10.961 15.4163C10.9177 15.2915 10.9256 15.1546 10.9829 15.0356C11.0402 14.9166 11.1423 14.8251 11.2669 14.7811C11.3914 14.7371 11.5283 14.7442 11.6477 14.8007C11.767 14.8573 11.8592 14.9589 11.9039 15.0831C11.9385 15.1806 12.0023 15.2649 12.0867 15.3246C12.1712 15.3842 12.272 15.4163 12.3754 15.4163H13.042C13.1746 15.4163 13.3018 15.3636 13.3956 15.2699C13.4894 15.1761 13.542 15.0489 13.542 14.9163V14.5828C13.542 14.4502 13.4894 14.323 13.3956 14.2292C13.3018 14.1355 13.1746 14.0828 13.042 14.0828H12.5142C12.2813 14.0828 12.0516 14.1371 11.8433 14.2414L11.599 14.3634C11.5165 14.4047 11.4242 14.4224 11.3322 14.4145C11.2403 14.4066 11.1523 14.3734 11.078 14.3186C11.0038 14.2638 10.9462 14.1895 10.9115 14.1039C10.8769 14.0184 10.8666 13.9249 10.8818 13.8339L11.2156 11.8338C11.2351 11.717 11.2953 11.611 11.3856 11.5345C11.4759 11.458 11.5904 11.416 11.7088 11.416H13.8755C14.0081 11.416 14.1353 11.4687 14.2291 11.5625C14.3228 11.6562 14.3755 11.7834 14.3755 11.9161C14.3755 12.0487 14.3228 12.1759 14.2291 12.2696C14.1353 12.3634 14.0081 12.4161 13.8755 12.4161Z" fill="#F6FDFE"/>
</g>
<defs>
<clipPath id="clip0_250_2962">
<rect width="13.7153" height="13.7153" fill="white" transform="translate(5.9458 6.20215)"/>
</clipPath>
</defs>
</svg>
