<svg width="21" height="21" viewBox="0 0 21 21" fill="none" xmlns="http://www.w3.org/2000/svg">
<g clip-path="url(#clip0_392_2433)">
<path d="M14.9839 16.2061C14.6385 13.8386 12.9693 12.1396 10.5365 12.1396C8.10174 12.1396 6.43254 13.8368 6.08712 16.2061C6.01244 16.7159 6.44001 17.136 6.95533 17.136H14.1157C14.6311 17.136 15.0586 16.7159 14.9839 16.2061Z" fill="#5E9894"/>
<path d="M10.5346 10.883C12.426 10.883 13.4903 9.81872 13.4903 7.92733C13.4903 6.03594 12.426 4.97168 10.5346 4.97168C8.64508 4.97168 7.58082 6.03594 7.58082 7.92733C7.58082 9.81872 8.64321 10.883 10.5346 10.883Z" fill="#5E9894"/>
<path d="M7.93865 16.3124C7.64924 14.4955 6.25069 13.1915 4.21232 13.1915C2.17238 13.1915 0.773832 14.494 0.484423 16.3124C0.421848 16.7036 0.78009 17.026 1.21186 17.026H7.21122C7.64298 17.026 8.00122 16.7036 7.93865 16.3124Z" fill="#5E9894"/>
<path d="M4.21075 12.2271C5.79546 12.2271 6.68715 11.4103 6.68715 9.95877C6.68715 8.5072 5.79546 7.69043 4.21075 7.69043C2.62761 7.69043 1.73592 8.5072 1.73592 9.95877C1.73592 11.4103 2.62605 12.2271 4.21075 12.2271Z" fill="#5E9894"/>
<path d="M20.5868 16.3124C20.2974 14.4955 18.8989 13.1915 16.8605 13.1915C14.8206 13.1915 13.422 14.494 13.1326 16.3124C13.07 16.7036 13.4283 17.026 13.86 17.026H19.8594C20.2912 17.026 20.6494 16.7036 20.5868 16.3124Z" fill="#5E9894"/>
<path d="M16.8589 12.2271C18.4437 12.2271 19.3353 11.4103 19.3353 9.95877C19.3353 8.5072 18.4437 7.69043 16.8589 7.69043C15.2758 7.69043 14.3841 8.5072 14.3841 9.95877C14.3841 11.4103 15.2742 12.2271 16.8589 12.2271Z" fill="#5E9894"/>
</g>
<defs>
<clipPath id="clip0_392_2433">
<rect width="20" height="20" fill="white" transform="translate(0.477295 0.685547)"/>
</clipPath>
</defs>
</svg>
