<svg width="26" height="26" viewBox="0 0 26 26" fill="none" xmlns="http://www.w3.org/2000/svg">
<rect x="0.828504" y="1.4828" width="23.6668" height="23.6668" rx="11.8334" fill="white"/>
<rect x="0.828504" y="1.4828" width="23.6668" height="23.6668" rx="11.8334" stroke="#566476" stroke-width="1.43435"/>
<g clip-path="url(#clip0_250_2953)">
<path d="M13.6166 7.34822C13.5073 7.13215 13.3401 6.95063 13.1338 6.82382C12.9275 6.69702 12.6901 6.62988 12.4479 6.62988C12.2058 6.62988 11.9684 6.69702 11.7621 6.82382C11.5558 6.95063 11.3886 7.13215 11.2793 7.34822L9.91062 9.9707L7.09726 10.5213C6.05433 10.7253 5.6783 12.0148 6.37407 12.7838L8.35336 14.9708L7.98304 17.9539C7.85418 18.9911 8.8974 19.8357 9.8749 19.3508L12.4479 18.0744L15.021 19.3508C15.9985 19.8357 17.042 18.9908 16.9131 17.9536L16.5425 14.9711L18.5221 12.7838C19.2176 12.0148 18.8418 10.7253 17.7989 10.5213L14.9856 9.9707L13.6166 7.34822Z" fill="#566476"/>
<path fill-rule="evenodd" clip-rule="evenodd" d="M13.6626 12.4161H11.9196L11.7996 13.1336C11.9647 13.0997 12.1328 13.0827 12.3014 13.0827H12.8291C13.6577 13.0827 14.3292 13.7542 14.3292 14.5828V14.9163C14.3292 15.7449 13.6577 16.4164 12.8291 16.4164H12.1625C11.8523 16.4164 11.5497 16.3202 11.2964 16.1411C11.0431 15.962 10.8515 15.7088 10.7481 15.4163C10.7048 15.2915 10.7127 15.1546 10.77 15.0356C10.8273 14.9166 10.9294 14.8251 11.054 14.7811C11.1785 14.7371 11.3154 14.7442 11.4348 14.8007C11.5541 14.8573 11.6463 14.9589 11.691 15.0831C11.7256 15.1806 11.7894 15.2649 11.8739 15.3246C11.9583 15.3842 12.0591 15.4163 12.1625 15.4163H12.8291C12.9617 15.4163 13.0889 15.3636 13.1827 15.2699C13.2765 15.1761 13.3291 15.0489 13.3291 14.9163V14.5828C13.3291 14.4502 13.2765 14.323 13.1827 14.2292C13.0889 14.1355 12.9617 14.0828 12.8291 14.0828H12.3014C12.0684 14.0828 11.8387 14.1371 11.6304 14.2414L11.3861 14.3634C11.3036 14.4047 11.2113 14.4224 11.1193 14.4145C11.0274 14.4066 10.9394 14.3734 10.8652 14.3186C10.7909 14.2638 10.7333 14.1895 10.6986 14.1039C10.664 14.0184 10.6537 13.9249 10.6689 13.8339L11.0027 11.8338C11.0222 11.717 11.0824 11.611 11.1727 11.5345C11.263 11.458 11.3775 11.416 11.4959 11.416H13.6626C13.7952 11.416 13.9224 11.4687 14.0162 11.5625C14.11 11.6562 14.1626 11.7834 14.1626 11.9161C14.1626 12.0487 14.11 12.1759 14.0162 12.2696C13.9224 12.3634 13.7952 12.4161 13.6626 12.4161Z" fill="#F6FDFE"/>
</g>
<defs>
<clipPath id="clip0_250_2953">
<rect width="13.7153" height="13.7153" fill="white" transform="translate(5.73291 6.20215)"/>
</clipPath>
</defs>
</svg>
