<svg width="24" height="23" viewBox="0 0 24 23" fill="none" xmlns="http://www.w3.org/2000/svg">
<g clip-path="url(#clip0_458_1682)">
<path fill-rule="evenodd" clip-rule="evenodd" d="M3.75569 3.37141C5.67278 1.45595 8.43812 0.499023 11.8311 0.499023C15.2242 0.499023 17.9895 1.45595 19.9066 3.37141C21.8221 5.2885 22.779 8.05384 22.779 11.4469C22.779 14.8399 21.8221 17.6052 19.9066 19.5223C17.9895 21.4378 15.2242 22.3947 11.8311 22.3947C8.43812 22.3947 5.67278 21.4378 3.75569 19.5223C1.84022 17.6052 0.883301 14.8399 0.883301 11.4469C0.883301 8.05384 1.84022 5.2885 3.75569 3.37141ZM16.1584 8.89237C16.17 8.65664 16.1321 8.42109 16.0472 8.20088C15.9623 7.98066 15.8323 7.78064 15.6655 7.61368C15.4987 7.44672 15.2988 7.31651 15.0786 7.23142C14.8585 7.14633 14.623 7.10825 14.3873 7.11963C11.8311 7.23154 9.14851 8.32308 6.66376 9.78928C6.45479 9.91223 6.2886 10.0964 6.18766 10.3168C6.08672 10.5373 6.05589 10.7834 6.09934 11.0219C6.13719 11.2589 6.24067 11.4805 6.39805 11.6617C6.55543 11.8429 6.76041 11.9763 6.98976 12.047C7.5331 12.214 8.11861 12.4184 8.63924 12.6552C9.16798 12.8952 9.5994 13.1547 9.86215 13.4175C10.1249 13.6802 10.3828 14.11 10.6244 14.6388C10.8612 15.161 11.0656 15.7449 11.2327 16.2899C11.3028 16.5191 11.4356 16.7241 11.6162 16.8817C11.7968 17.0394 12.0179 17.1434 12.2545 17.1819C12.4938 17.2258 12.7409 17.1948 12.962 17.0932C13.1832 16.9917 13.3677 16.8244 13.4903 16.6142C14.9549 14.1327 16.0481 11.4485 16.1584 8.89237Z" fill="#5E9894"/>
</g>
<defs>
<clipPath id="clip0_458_1682">
<rect width="22.7066" height="22.7066" fill="white" transform="translate(0.477295 0.0927734)"/>
</clipPath>
</defs>
</svg>
