<?xml version="1.0" encoding="utf-8"?>
<!-- Generator: Adobe Illustrator 26.0.1, SVG Export Plug-In . SVG Version: 6.00 Build 0)  -->
<svg version="1.1" id="Layer_1" xmlns="http://www.w3.org/2000/svg" xmlns:xlink="http://www.w3.org/1999/xlink" x="0px" y="0px"
	 width="755px" height="138.7px" viewBox="0 0 755 138.7" style="enable-background:new 0 0 755 138.7;" xml:space="preserve">
<style type="text/css">
	.st0{fill:#2C9A94;}
</style>
<g>
	<path class="st0" d="M208.3,122.3c-0.6,1.6-1.5,3.1-2.8,4.3c-2.4,2.5-5.3,3.7-8.7,3.7c-3.4,0-6.2-1.2-8.6-3.7
		c-1.3-1.2-2.2-2.6-2.8-4.2l-47.7-95.5c-1.5-2-2.2-4.4-2.2-7c0-3.3,1.2-6.2,3.6-8.6c2.4-2.4,5.3-3.6,8.6-3.6c3.4,0,6.3,1.2,8.7,3.6
		c0.8,0.8,1.5,1.7,2,2.6h0.1l38.2,76.6L235,13.8l0.1,0.1c0.6-1,1.3-1.9,2.1-2.7c2.4-2.4,5.2-3.6,8.6-3.6c3.4,0,6.3,1.2,8.7,3.6
		c2.4,2.4,3.6,5.3,3.6,8.6c0,2.7-0.8,5.1-2.3,7.1L208.3,122.3z"/>
	<path class="st0" d="M344.1,35.7c-4.5-2-9.4-3.1-14.8-3.1c-10,0-18.6,3.5-25.7,10.6c-7.1,7.1-10.7,15.6-10.7,25.7
		s3.6,18.6,10.7,25.7s15.7,10.7,25.7,10.7c10,0,18.5-3.5,25.6-10.5c0.1-0.1,0.2-0.2,0.2-0.2c2.4-2.4,5.3-3.6,8.7-3.6
		s6.4,1.2,8.8,3.6c2.5,2.4,3.7,5.3,3.7,8.8s-1.2,6.4-3.7,8.8c-0.1,0.1-0.2,0.2-0.2,0.2c-11.8,11.8-26.2,17.8-43.1,17.8
		s-31.3-6-43.3-17.9C274,100.4,268.1,86,268.1,69.1c0-16.9,6-31.3,17.9-43.3c11.9-11.9,26.4-17.9,43.3-17.9s31.3,5.9,43.1,17.8
		l-0.1,0.1c0,0.1,0,0.1,0.1,0.1c2.4,2.4,3.6,5.3,3.6,8.7c0,3.4-1.2,6.2-3.6,8.6L337.3,78c-2.5,2.4-5.4,3.6-8.8,3.6
		c-3.5,0-6.5-1.2-8.9-3.6c-2.4-2.5-3.6-5.4-3.6-8.9c0-3.4,1.2-6.4,3.6-8.8L344.1,35.7z"/>
	<path class="st0" d="M463.8,7.7c3.4,0,6.4,1.2,8.8,3.7s3.7,5.4,3.7,8.8s-1.2,6.4-3.7,8.8s-5.4,3.7-8.8,3.7h-0.1
		c-10,0-18.6,3.6-25.7,10.7c-6.5,6.5-10.1,14.2-10.5,23.2c0.1,0.7,0.1,1.5,0.1,2.2V116c0,4.6-1.2,8.1-3.7,10.5
		c-2.5,2.5-5.4,3.7-8.8,3.7s-6.4-1.2-8.8-3.7c-2.5-2.5-3.7-6-3.7-10.8V68.5c0.2-16.7,6.1-30.9,17.9-42.7
		C431.7,14.5,446.2,8.5,463.8,7.7z"/>
	<path class="st0" d="M585.5,25.8c11.9,11.9,17.9,26.3,17.9,43.3c0,16.9-6,31.3-17.9,43.3c-11.9,11.9-26.3,17.9-43.3,17.9
		c-16.9,0-31.3-6-43.3-17.9C487,100.4,481.1,86,481.1,69.1c0-16.9,6-31.3,17.9-43.3c11.9-11.9,26.4-17.9,43.3-17.9
		C559.2,7.9,573.6,13.9,585.5,25.8z M542.2,32.7c-10,0-18.6,3.5-25.7,10.6c-7.1,7.1-10.7,15.6-10.7,25.7s3.6,18.6,10.7,25.7
		c7.1,7.1,15.7,10.7,25.7,10.7c10.1,0,18.6-3.6,25.7-10.7C575,87.6,578.5,79,578.5,69s-3.5-18.6-10.6-25.7
		C560.8,36.2,552.3,32.7,542.2,32.7z"/>
	<path class="st0" d="M732.8,25.8c11.9,11.9,17.9,26.3,17.9,43.3c0,16.9-6,31.3-17.9,43.3c-11.9,11.9-26.3,17.9-43.3,17.9
		c-16.9,0-31.3-6-43.3-17.9c-11.9-11.9-17.9-26.4-17.9-43.3c0-16.9,6-31.3,17.9-43.3c11.9-11.9,26.4-17.9,43.3-17.9
		C706.5,7.9,720.9,13.9,732.8,25.8z M689.6,32.7c-10,0-18.6,3.5-25.7,10.6c-7.1,7.1-10.7,15.6-10.7,25.7s3.6,18.6,10.7,25.7
		c7.1,7.1,15.7,10.7,25.7,10.7c10.1,0,18.6-3.6,25.7-10.7c7.1-7.1,10.6-15.7,10.6-25.7s-3.5-18.6-10.6-25.7
		C708.2,36.2,699.6,32.7,689.6,32.7z"/>
	<path class="st0" d="M28.3,124.8c-2.3,3.7-6.4,6.2-11.1,6.2c-7.2,0-13-5.8-13-13c0-4.8,2.6-9.1,6.6-11.3c2.5,3.7,5.4,7.2,8.8,10.6
		C22.4,120.1,25.3,122.6,28.3,124.8z"/>
	<path class="st0" d="M114.9,103.4c0,3.4-1.2,6.4-3.7,8.8c-0.1,0.1-0.2,0.2-0.2,0.2c-11.8,11.8-26.2,17.8-43.1,17.8
		c-14.3,0-26.9-4.3-37.6-12.8c-1.9-1.5-3.8-3.2-5.7-5.1c-2.3-2.3-4.5-4.8-6.3-7.3c-7.7-10.4-11.6-22.4-11.6-36
		c0-16.9,6-31.3,17.9-43.3C36.5,13.9,50.9,7.9,67.8,7.9c16.9,0,31.3,5.9,43.1,17.8l-0.1,0.1c0,0.1,0,0.1,0.1,0.1
		c2.4,2.4,3.6,5.3,3.6,8.7c0,3.4-1.2,6.2-3.6,8.6L75.9,78c-2.4,2.4-5.4,3.5-8.8,3.5c-3.5,0-6.5-1.2-9-3.5c-2.4-2.5-3.5-5.4-3.5-9
		c0-3.4,1.2-6.4,3.5-8.8l24.5-24.5c-4.5-2-9.4-3.1-14.8-3.1c-10,0-18.6,3.5-25.7,10.6C35,50.4,31.4,58.9,31.4,69S35,87.6,42.1,94.7
		c7.1,7.1,15.7,10.7,25.7,10.7c10,0,18.5-3.5,25.6-10.5c0.1-0.1,0.2-0.2,0.2-0.2c2.4-2.4,5.3-3.5,8.7-3.5c3.4,0,6.4,1.2,8.8,3.6
		C113.7,97,114.9,100,114.9,103.4z"/>
</g>
</svg>
