<svg width="16" height="16" viewBox="0 0 16 16" fill="none" xmlns="http://www.w3.org/2000/svg">
<g clip-path="url(#clip0_274_12015)">
<path fill-rule="evenodd" clip-rule="evenodd" d="M3.84234 14.3815C3.34118 14.328 2.87271 14.107 2.51265 13.7543C2.15259 13.4017 1.92197 12.9379 1.85805 12.438C1.69734 11.1469 1.53662 9.81295 1.53662 8.44581C1.53662 7.43974 1.62448 6.45081 1.73376 5.48545C1.73915 5.43818 1.75708 5.39322 1.78569 5.35521C1.8143 5.3172 1.85255 5.28754 1.89649 5.26928C1.94042 5.25103 1.98843 5.24486 2.03555 5.25141C2.08267 5.25796 2.12719 5.27699 2.16448 5.30652L6.73626 8.91188C7.23236 9.30292 7.84565 9.51557 8.47734 9.51557C9.10902 9.51557 9.72231 9.30292 10.2184 8.91188L14.7913 5.30652C14.8286 5.27727 14.873 5.25848 14.9199 5.25208C14.9669 5.24569 15.0147 5.25193 15.0585 5.27015C15.1022 5.28837 15.1404 5.31793 15.1689 5.35577C15.1975 5.39361 15.2154 5.43837 15.2209 5.48545C15.3302 6.45081 15.418 7.43974 15.418 8.44581C15.418 9.81295 15.2573 11.148 15.0966 12.438C15.0327 12.9379 14.8021 13.4017 14.442 13.7543C14.082 14.107 13.6135 14.328 13.1123 14.3815L12.9688 14.3965C11.518 14.5476 10.0159 14.7051 8.47734 14.7051C6.93876 14.7051 5.43662 14.5476 3.98591 14.3965L3.84234 14.3815ZM14.6702 3.39831C14.7076 3.45082 14.723 3.5159 14.7129 3.5796C14.7029 3.6433 14.6683 3.70053 14.6166 3.73902L9.38912 7.85974C9.12945 8.06483 8.80823 8.17638 8.47734 8.17638C8.14644 8.17638 7.82522 8.06483 7.56555 7.85974L2.33805 3.73902C2.28632 3.70053 2.25174 3.6433 2.24172 3.5796C2.23171 3.5159 2.24706 3.45082 2.28448 3.39831C2.46883 3.15071 2.70238 2.94389 2.97047 2.79086C3.23856 2.63782 3.53539 2.54187 3.84234 2.50902L3.98591 2.49509C5.43662 2.34295 6.93876 2.18652 8.47734 2.18652C10.0159 2.18652 11.518 2.34295 12.9688 2.49509L13.1123 2.51009C13.4192 2.54281 13.716 2.6386 13.9841 2.79145C14.2521 2.9443 14.4857 3.1509 14.6702 3.39831Z" fill="#5E9894"/>
</g>
<defs>
<clipPath id="clip0_274_12015">
<rect width="15" height="15" fill="white" transform="translate(0.977295 0.946289)"/>
</clipPath>
</defs>
</svg>
