<svg width="10" height="10" viewBox="0 0 10 10" fill="none" xmlns="http://www.w3.org/2000/svg">
<path fill-rule="evenodd" clip-rule="evenodd" d="M0.992222 0.66091C1.55822 -0.11109 2.61722 -0.22109 3.33922 0.40591C3.65922 0.68391 3.97222 0.97391 4.27922 1.26191C4.69922 1.65491 4.74522 2.33191 4.36922 2.76791C4.32622 2.81791 4.17522 2.97591 4.03222 3.12391L3.80222 3.36491C4.52122 4.57391 5.26722 5.32891 6.49822 6.05991C6.55522 6.00691 6.64522 5.91991 6.73822 5.82991C6.88522 5.68991 7.04122 5.53991 7.09022 5.49791C7.52622 5.12091 8.20622 5.16691 8.60322 5.58491C8.90922 5.90691 9.22022 6.23491 9.51322 6.57491C10.1142 7.27491 9.99122 8.29891 9.24322 8.84191C9.11222 8.93791 8.95422 9.05491 8.75022 9.21891C8.22281 9.63696 7.56935 9.86404 6.89635 9.86313C6.22335 9.86222 5.5705 9.63338 5.04422 9.21391C3.42549 7.91116 1.95197 6.43765 0.649222 4.81891C0.229751 4.29263 0.000910698 3.63978 2.71243e-06 2.96678C-0.000905273 2.29378 0.226172 1.64032 0.644222 1.11291C0.790222 0.92991 0.901222 0.78391 0.992222 0.66091Z" fill="#5E9894"/>
</svg>
