<svg width="26" height="26" viewBox="0 0 26 26" fill="none" xmlns="http://www.w3.org/2000/svg">
<rect x="1.59071" y="1.4828" width="23.6668" height="23.6668" rx="11.8334" fill="white"/>
<rect x="1.59071" y="1.4828" width="23.6668" height="23.6668" rx="11.8334" stroke="#566476" stroke-width="1.43435"/>
<g clip-path="url(#clip0_250_2931)">
<path fill-rule="evenodd" clip-rule="evenodd" d="M6.80078 10.6111C6.80078 9.89656 7.08462 9.21131 7.58986 8.70607C8.0951 8.20083 8.78034 7.91699 9.49486 7.91699H15.3728C16.0874 7.91699 16.7726 8.20083 17.2778 8.70607C17.7831 9.21131 18.0669 9.89656 18.0669 10.6111V12.8868C18.0669 12.9357 18.0816 12.9835 18.109 13.024C18.1364 13.0645 18.1753 13.0959 18.2207 13.1141L19.4385 13.601C20.0889 13.8616 20.5161 14.4925 20.5161 15.193V16.9789C20.5161 17.4336 20.3355 17.8696 20.0139 18.1912C19.6924 18.5127 19.2564 18.6933 18.8017 18.6933H18.7635C18.7684 18.6198 18.7713 18.5463 18.7713 18.4739C18.7713 17.8312 18.5871 17.1905 18.109 16.7114C17.629 16.2334 16.9893 16.0492 16.3466 16.0492C15.705 16.0492 15.0633 16.2334 14.5852 16.7114C14.1071 17.1915 13.9229 17.8312 13.9229 18.4739C13.9229 18.5473 13.9249 18.6208 13.9308 18.6933H12.8963C12.9018 18.6203 12.9044 18.5471 12.9041 18.4739C12.9041 17.8312 12.7199 17.1905 12.2418 16.7114C11.7628 16.2334 11.1221 16.0492 10.4804 16.0492C9.83774 16.0492 9.19704 16.2334 8.71798 16.7114C8.23991 17.1915 8.05573 17.8312 8.05573 18.4739C8.05573 18.5268 8.05769 18.5797 8.05965 18.6326C7.69769 18.5328 7.37849 18.317 7.15107 18.0182C6.92365 17.7195 6.80059 17.3543 6.80078 16.9789V10.6111ZM15.1279 12.8153C14.998 12.8153 14.8734 12.7637 14.7816 12.6718C14.6897 12.58 14.6381 12.4554 14.6381 12.3255V9.87632C14.6381 9.74641 14.6897 9.62182 14.7816 9.52996C14.8734 9.4381 14.998 9.38649 15.1279 9.38649H15.3728C16.0488 9.38649 16.5974 9.9351 16.5974 10.6111V12.3255C16.5974 12.4554 16.5458 12.58 16.454 12.6718C16.3621 12.7637 16.2375 12.8153 16.1076 12.8153H15.1279ZM12.6788 9.38649C12.8087 9.38649 12.9333 9.4381 13.0251 9.52996C13.117 9.62182 13.1686 9.74641 13.1686 9.87632V12.3255C13.1686 12.4554 13.117 12.58 13.0251 12.6718C12.9333 12.7637 12.8087 12.8153 12.6788 12.8153H11.6991C11.5692 12.8153 11.4446 12.7637 11.3527 12.6718C11.2609 12.58 11.2093 12.4554 11.2093 12.3255V9.87632C11.2093 9.74641 11.2609 9.62182 11.3527 9.52996C11.4446 9.4381 11.5692 9.38649 11.6991 9.38649H12.6788ZM9.73977 9.6314C9.73977 9.56645 9.71397 9.50415 9.66804 9.45822C9.62211 9.41229 9.55981 9.38649 9.49486 9.38649C8.81889 9.38649 8.27028 9.9351 8.27028 10.6111V12.3255C8.27028 12.4554 8.32189 12.58 8.41375 12.6718C8.50561 12.7637 8.6302 12.8153 8.76011 12.8153H9.24994C9.37985 12.8153 9.50444 12.7637 9.59631 12.6718C9.68817 12.58 9.73977 12.4554 9.73977 12.3255V9.6314ZM10.4804 19.9179C11.4042 19.9179 11.9244 19.3987 11.9244 18.4739C11.9244 17.5491 11.4052 17.0279 10.4804 17.0279C9.5556 17.0279 9.0354 17.5481 9.0354 18.4729C9.0354 19.3967 9.5556 19.9169 10.4804 19.9169V19.9179ZM17.7916 18.4739C17.7916 19.3977 17.2714 19.9179 16.3466 19.9179C15.4228 19.9179 14.9026 19.3987 14.9026 18.4739C14.9026 17.5491 15.4218 17.0288 16.3466 17.0288C17.2714 17.0288 17.7916 17.5491 17.7916 18.4739Z" fill="#566476"/>
</g>
<defs>
<clipPath id="clip0_250_2931">
<rect width="13.7153" height="13.7153" fill="white" transform="translate(6.80078 6.20215)"/>
</clipPath>
</defs>
</svg>
