<svg width="26" height="26" viewBox="0 0 26 26" fill="none" xmlns="http://www.w3.org/2000/svg">
<rect x="1.3539" y="1.4828" width="23.6668" height="23.6668" rx="11.8334" fill="white"/>
<rect x="1.3539" y="1.4828" width="23.6668" height="23.6668" rx="11.8334" stroke="#566476" stroke-width="1.43435"/>
<g clip-path="url(#clip0_250_2938)">
<path d="M9.84127 14.1219C9.84272 14.1509 9.83825 14.1799 9.82814 14.2072C9.81802 14.2344 9.80247 14.2593 9.78242 14.2804C9.76237 14.3014 9.73825 14.3182 9.71153 14.3296C9.68481 14.3411 9.65603 14.3469 9.62697 14.3469H7.26322C7.16648 14.347 7.07254 14.3145 6.99667 14.2544C6.9208 14.1944 6.86746 14.1105 6.84533 14.0163C6.83155 13.9519 6.83219 13.8852 6.84719 13.821C6.8622 13.7568 6.8912 13.6967 6.93213 13.6451C7.31027 13.1436 7.81199 12.7487 8.3883 12.4991C8.13528 12.2684 7.94122 11.9804 7.82237 11.6593C7.70353 11.3382 7.66336 10.9933 7.70523 10.6534C7.74709 10.3136 7.86978 9.98875 8.06302 9.70608C8.25625 9.42341 8.5144 9.19116 8.81585 9.02878C9.1173 8.8664 9.45327 8.77861 9.79563 8.77277C10.138 8.76694 10.4767 8.84322 10.7836 8.99523C11.0904 9.14724 11.3563 9.37056 11.559 9.64647C11.7618 9.92239 11.8955 10.2429 11.9489 10.5811C11.9558 10.6266 11.9477 10.6731 11.9257 10.7135C11.9038 10.7539 11.8692 10.786 11.8273 10.805C11.2328 11.0799 10.7294 11.519 10.3763 12.0706C10.0233 12.6223 9.8354 13.2634 9.83484 13.9183C9.83484 13.9869 9.83484 14.0544 9.84127 14.1219ZM19.592 13.6445C19.2147 13.1436 18.7141 12.749 18.139 12.4991C18.392 12.2684 18.5861 11.9804 18.705 11.6593C18.8238 11.3382 18.864 10.9933 18.8221 10.6534C18.7802 10.3136 18.6575 9.98875 18.4643 9.70608C18.2711 9.42341 18.0129 9.19116 17.7115 9.02878C17.41 8.8664 17.0741 8.77861 16.7317 8.77277C16.3893 8.76694 16.0506 8.84322 15.7438 8.99523C15.437 9.14724 15.171 9.37056 14.9683 9.64647C14.7655 9.92239 14.6318 10.2429 14.5784 10.5811C14.5715 10.6266 14.5797 10.6731 14.6016 10.7135C14.6236 10.7539 14.6581 10.786 14.7 10.805C15.2945 11.0799 15.798 11.519 16.151 12.0706C16.504 12.6223 16.6919 13.2634 16.6925 13.9183C16.6925 13.9869 16.6925 14.0544 16.6861 14.1219C16.6846 14.1509 16.6891 14.1799 16.6992 14.2072C16.7093 14.2344 16.7249 14.2593 16.7449 14.2804C16.765 14.3014 16.7891 14.3182 16.8158 14.3296C16.8425 14.3411 16.8713 14.3469 16.9004 14.3469H19.2641C19.3608 14.347 19.4548 14.3145 19.5307 14.2544C19.6065 14.1944 19.6599 14.1105 19.682 14.0163C19.6959 13.9518 19.6952 13.8849 19.6801 13.8206C19.665 13.7563 19.6358 13.6962 19.5947 13.6445H19.592ZM14.8238 15.9579C15.2505 15.6311 15.5641 15.1787 15.7205 14.6645C15.8769 14.1502 15.8683 13.5998 15.6957 13.0908C15.5232 12.5817 15.1954 12.1395 14.7586 11.8263C14.3217 11.5131 13.7977 11.3446 13.2602 11.3446C12.7227 11.3446 12.1986 11.5131 11.7618 11.8263C11.3249 12.1395 10.9972 12.5817 10.8247 13.0908C10.6521 13.5998 10.6434 14.1502 10.7998 14.6645C10.9562 15.1787 11.2698 15.6311 11.6966 15.9579C10.9393 16.286 10.307 16.8479 9.89217 17.5614C9.85454 17.6266 9.83474 17.7005 9.83474 17.7757C9.83475 17.851 9.85456 17.9249 9.89219 17.9901C9.92982 18.0552 9.98394 18.1093 10.0491 18.1469C10.1143 18.1845 10.1882 18.2043 10.2634 18.2043H16.2639C16.3391 18.2043 16.4131 18.1845 16.4782 18.1469C16.5434 18.1093 16.5975 18.0552 16.6351 17.9901C16.6728 17.9249 16.6926 17.851 16.6926 17.7757C16.6926 17.7005 16.6728 17.6266 16.6352 17.5614C16.2195 16.8475 15.5859 16.2855 14.8275 15.9579H14.8238Z" fill="#566476"/>
</g>
<defs>
<clipPath id="clip0_250_2938">
<rect width="13.7153" height="13.7153" fill="white" transform="translate(6.40576 6.20215)"/>
</clipPath>
</defs>
</svg>
