<svg width="23" height="23" viewBox="0 0 23 23" fill="none" xmlns="http://www.w3.org/2000/svg">
<g clip-path="url(#clip0_392_2427)">
<path d="M11.5935 0.212891C17.864 0.212891 22.9469 5.29577 22.9469 11.5662C22.9469 17.8366 17.864 22.9195 11.5935 22.9195C5.32311 22.9195 0.240234 17.8366 0.240234 11.5662C0.240234 5.29577 5.32311 0.212891 11.5935 0.212891ZM10.5377 6.54917C10.3275 6.54917 10.126 6.63267 9.97734 6.78128C9.82872 6.9299 9.74523 7.13146 9.74523 7.34164V13.6779C9.74523 14.1162 10.0995 14.4704 10.5377 14.4704H16.874C16.9805 14.4744 17.0867 14.4569 17.1863 14.4189C17.2859 14.381 17.3768 14.3233 17.4536 14.2493C17.5304 14.1754 17.5915 14.0868 17.6332 13.9887C17.6749 13.8906 17.6964 13.7851 17.6964 13.6785C17.6964 13.5719 17.6749 13.4664 17.6332 13.3683C17.5915 13.2702 17.5304 13.1816 17.4536 13.1076C17.3768 13.0337 17.2859 12.976 17.1863 12.938C17.0867 12.9001 16.9805 12.8826 16.874 12.8866H11.329V7.34164C11.329 7.13166 11.2457 6.93027 11.0973 6.78168C10.9489 6.6331 10.7477 6.54948 10.5377 6.54917Z" fill="#5E9894"/>
</g>
<defs>
<clipPath id="clip0_392_2427">
<rect width="22.7066" height="22.7066" fill="white" transform="translate(0.240234 0.212891)"/>
</clipPath>
</defs>
</svg>
